<svg xmlns="http://www.w3.org/2000/svg" width="256" height="256" viewBox="0 0 100 100"><rect width="100" height="100" rx="20" fill="#7d6ee7"></rect><path fill="#fff" d="M44.60 28.67L44.60 28.67Q44.60 29.93 43.84 30.83Q43.07 31.73 42.08 32.18L42.08 32.18Q39.74 30.56 36.59 29.12Q33.44 27.68 28.40 27.68L28.40 27.68Q24.26 27.68 20.75 29.12Q17.24 30.56 14.63 33.35Q12.02 36.14 10.54 40.37Q9.05 44.60 9.05 50.09L9.05 50.09Q9.05 55.67 10.49 59.81Q11.93 63.95 14.50 66.74Q17.06 69.53 20.66 70.92Q24.26 72.32 28.67 72.32L28.67 72.32Q33.35 72.32 36.81 71.02Q40.28 69.71 42.62 67.91L42.62 67.91Q43.52 68.27 44.33 69.22Q45.14 70.16 45.14 71.42L45.14 71.42Q45.14 73.31 42.98 74.84L42.98 74.84Q40.91 76.28 37.31 77.41Q33.71 78.53 28.13 78.53L28.13 78.53Q22.46 78.53 17.60 76.73Q12.74 74.93 9.19 71.38Q5.63 67.82 3.56 62.51Q1.49 57.20 1.49 50.09L1.49 50.09Q1.49 42.98 3.61 37.63Q5.72 32.27 9.32 28.67Q12.92 25.07 17.74 23.27Q22.55 21.47 27.86 21.47L27.86 21.47Q31.55 21.47 34.66 22.10Q37.76 22.73 39.97 23.77Q42.17 24.80 43.38 26.11Q44.60 27.41 44.60 28.67ZM89.96 74.93L75.92 54.68L59.36 77.81Q58.46 77.99 57.56 77.99L57.56 77.99Q55.76 77.99 54.68 77.14Q53.60 76.28 53.60 74.75L53.60 74.75Q53.60 73.58 54.18 72.59Q54.77 71.60 55.67 70.34L55.67 70.34L71.51 49.64L53.96 25.70Q54.41 24.17 55.44 23.13Q56.48 22.10 58.28 22.10L58.28 22.10Q59.72 22.10 60.71 22.95Q61.70 23.81 62.78 25.34L62.78 25.34L76.10 44.42L92.03 22.37Q92.48 22.28 92.93 22.23Q93.38 22.19 93.92 22.19L93.92 22.19Q95.81 22.19 96.75 23.09Q97.70 23.99 97.70 25.34L97.70 25.34Q97.70 26.33 97.20 27.27Q96.71 28.22 95.99 29.21L95.99 29.21Q92.21 34.25 88.34 39.29Q84.47 44.33 80.42 49.46L80.42 49.46L98.51 74.48Q98.06 76.01 97.07 77Q96.08 77.99 94.37 77.99L94.37 77.99Q92.93 77.99 91.98 77.27Q91.04 76.55 89.96 74.93L89.96 74.93Z"></path></svg>